<svg xmlns="http://www.w3.org/2000/svg" xmlns:xlink="http://www.w3.org/1999/xlink" width="40" zoomAndPan="magnify" viewBox="0 0 30 30.000001" height="40" preserveAspectRatio="xMidYMid meet" version="1.0"><defs><g/></defs><g fill="#cb6ce6" fill-opacity="1"><g transform="translate(5.193427, 22.023554)"><g><path d="M 18.921875 -14.09375 L 17.15625 -14.09375 L 17.15625 -17.046875 L 18.921875 -17.046875 Z M 16.171875 -14.09375 L 14.40625 -14.09375 L 14.40625 -17.046875 L 16.171875 -17.046875 Z M 10.75 -0.921875 L 5.28125 1.5625 L 3.640625 -0.390625 L 9.515625 -3.046875 C 9.765625 -3.148438 9.921875 -3.28125 9.984375 -3.4375 C 10.046875 -3.601562 10.078125 -3.804688 10.078125 -4.046875 L 10.078125 -10.859375 L 5.703125 -10.859375 C 5.367188 -10.210938 5.066406 -9.632812 4.796875 -9.125 C 4.535156 -8.625 4.375 -8.300781 4.3125 -8.15625 C 4.101562 -7.695312 3.835938 -7.351562 3.515625 -7.125 C 3.203125 -6.90625 2.773438 -6.796875 2.234375 -6.796875 L 1.125 -6.796875 L 0.703125 -8.796875 L 1.59375 -8.796875 C 1.820312 -8.796875 2.015625 -8.960938 2.171875 -9.296875 C 2.265625 -9.472656 2.425781 -9.785156 2.65625 -10.234375 C 2.882812 -10.679688 3.144531 -11.195312 3.4375 -11.78125 C 3.726562 -12.375 4.03125 -12.972656 4.34375 -13.578125 C 4.664062 -14.179688 4.953125 -14.734375 5.203125 -15.234375 C 5.460938 -15.742188 5.660156 -16.144531 5.796875 -16.4375 L 8.609375 -16.4375 C 8.515625 -16.25 8.300781 -15.835938 7.96875 -15.203125 C 7.644531 -14.566406 7.273438 -13.859375 6.859375 -13.078125 L 18.546875 -13.078125 L 18.546875 -10.859375 L 12.640625 -10.859375 L 12.640625 -3.765625 C 12.640625 -3.140625 12.503906 -2.585938 12.234375 -2.109375 C 11.960938 -1.640625 11.46875 -1.242188 10.75 -0.921875 Z M 10.75 -0.921875 "/></g></g></g></svg>